<?xml version="1.0" encoding="UTF-8" standalone="no"?>
<svg
   xmlns:dc="http://purl.org/dc/elements/1.1/"
   xmlns:cc="http://creativecommons.org/ns#"
   xmlns:rdf="http://www.w3.org/1999/02/22-rdf-syntax-ns#"
   xmlns:svg="http://www.w3.org/2000/svg"
   xmlns="http://www.w3.org/2000/svg"
   xmlns:sodipodi="http://sodipodi.sourceforge.net/DTD/sodipodi-0.dtd"
   xmlns:inkscape="http://www.inkscape.org/namespaces/inkscape"
   class="ionicon"
   viewBox="0 0 512 512"
   version="1.1"
   id="svg30"
   sodipodi:docname="trash-outline.svg"
   inkscape:version="1.0.2-2 (e86c870879, 2021-01-15)">
  <metadata
     id="metadata36">
    <rdf:RDF>
      <cc:Work
         rdf:about="">
        <dc:format>image/svg+xml</dc:format>
        <dc:type
           rdf:resource="http://purl.org/dc/dcmitype/StillImage" />
      </cc:Work>
    </rdf:RDF>
  </metadata>
  <defs
     id="defs34" />
  <sodipodi:namedview
     pagecolor="#ffffff"
     bordercolor="#666666"
     borderopacity="1"
     objecttolerance="10"
     gridtolerance="10"
     guidetolerance="10"
     inkscape:pageopacity="0"
     inkscape:pageshadow="2"
     inkscape:window-width="1920"
     inkscape:window-height="1001"
     id="namedview32"
     showgrid="false"
     inkscape:zoom="1.6210938"
     inkscape:cx="137.25301"
     inkscape:cy="254.76627"
     inkscape:window-x="-9"
     inkscape:window-y="-9"
     inkscape:window-maximized="1"
     inkscape:current-layer="svg30" />
  <path
     d="M112 112l20 320c.95 18.49 14.4 32 32 32h184c17.67 0 30.87-13.51 32-32l20-320"
     fill="none"
     stroke="currentColor"
     stroke-linecap="round"
     stroke-linejoin="round"
     stroke-width="32"
     id="path24" />
  <path
     stroke="currentColor"
     stroke-linecap="round"
     stroke-miterlimit="10"
     stroke-width="32"
     d="M80 112h352"
     id="path26" />
  <path
     d="M192 112V72h0a23.93 23.93 0 0124-24h80a23.93 23.93 0 0124 24h0v40M256 176v224M184 176l8 224M328 176l-8 224"
     fill="none"
     stroke="currentColor"
     stroke-linecap="round"
     stroke-linejoin="round"
     stroke-width="32"
     id="path28" />
  <path
     style="fill:#fbefe7;fill-opacity:1;stroke-width:0.616867"
     d="m 158.49035,479.26257 c -10.99182,-1.30692 -19.63806,-5.6036 -27.71445,-13.77248 -7.97463,-8.06596 -12.31858,-16.83767 -13.85393,-27.97516 -0.3626,-2.63032 -4.81908,-71.95927 -9.90328,-154.06433 -5.08421,-82.10506 -9.40084,-150.72159 -9.592516,-152.48118 l -0.348502,-3.19925 -10.601487,-0.19352 c -11.77338,-0.21491 -13.510137,-0.67582 -17.470872,-4.63655 -3.343924,-3.34393 -4.195646,-5.49954 -4.216009,-10.67022 -0.02655,-6.74102 2.638049,-11.20773 8.585288,-14.39166 2.49858,-1.337641 2.530677,-1.338566 52.551828,-1.506662 l 50.05171,-0.168208 0.29663,-15.253481 c 0.32306,-16.612851 0.76208,-19.363542 4.20755,-26.362278 5.06288,-10.28417 14.27374,-17.777034 25.91245,-21.079308 3.66536,-1.039979 7.32197,-1.122741 49.60524,-1.122741 42.28327,0 45.93988,0.08276 49.60524,1.122741 11.72075,3.325551 20.84555,10.781143 25.91181,21.171743 3.4867,7.15102 3.88471,9.635664 4.20819,26.269843 l 0.29663,15.253481 50.05171,0.168208 c 50.02115,0.168096 50.05325,0.169021 52.55183,1.506662 5.94724,3.18393 8.61183,7.65064 8.58528,14.39166 -0.0204,5.17068 -0.87208,7.32629 -4.216,10.67022 -3.96074,3.96073 -5.69749,4.42164 -17.47087,4.63655 l -10.60149,0.19352 -0.34847,3.19925 c -0.19166,1.75959 -4.37513,68.1554 -9.2966,147.54624 -4.92146,79.39085 -9.22848,148.00996 -9.57115,152.48691 -1.24018,16.20286 -5.9604,26.77717 -16.23701,36.37439 -5.32524,4.97319 -12.17835,8.72195 -19.83537,10.85027 l -4.93493,1.3717 -95.9229,0.0912 c -52.75759,0.0501 -97.88609,-0.14224 -100.28555,-0.42754 z m 196.83628,-32.6842 c 3.71874,-1.91385 6.75683,-5.72991 7.98635,-10.0314 0.64598,-2.26 3.62846,-46.87884 10.17165,-152.17107 5.09172,-81.93542 9.42396,-150.70843 9.62719,-152.82891 l 0.36951,-3.85542 H 256.01175 128.54216 l 0.37191,4.16385 c 0.20456,2.29012 4.51929,70.92434 9.58829,152.52048 5.069,81.59615 9.51699,149.60579 9.88442,151.13253 1.48127,6.15506 5.53392,10.62759 10.96276,12.09859 2.28149,0.6182 22.80417,0.75753 97.90086,0.66468 l 95.01425,-0.11748 z M 304.30327,82.703683 C 304.12926,70.156625 304.02305,69.049925 302.83808,67.436213 299.86787,63.391357 301.64562,63.539267 256,63.539267 c -45.64562,0 -43.86787,-0.14791 -46.83808,3.896946 -1.18497,1.613712 -1.29118,2.720412 -1.46519,15.26747 l -0.1876,13.527642 H 256 304.49087 Z"
     id="path885" />
  <path
     style="fill:#fbefe7;fill-opacity:1;stroke-width:0.616867"
     d="m 316.14058,415.19231 c -4.99416,-1.51916 -9.8093,-6.22714 -11.10614,-10.85898 -0.66552,-2.37702 -0.15516,-20.42307 3.30178,-116.74837 2.30964,-64.35645 4.37212,-114.93661 4.73963,-116.23444 0.96997,-3.42533 4.23936,-7.30778 7.61799,-9.04649 6.40917,-3.29827 13.96105,-2.01856 18.63805,3.15832 3.69119,4.0857 4.22844,5.97306 4.0861,14.35452 -0.17523,10.31855 -7.41091,214.94725 -7.78329,220.11528 -0.1788,2.48146 -0.84568,5.33173 -1.62331,6.93811 -3.0686,6.33887 -11.4932,10.26203 -17.87081,8.32205 z"
     id="path887" />
  <path
     style="fill:#fbefe7;fill-opacity:1;stroke-width:0.616867"
     d="m 250.49829,414.52618 c -3.53861,-1.38173 -6.70468,-4.22183 -8.58608,-7.70208 l -1.3339,-2.46747 V 288.07711 171.79759 l 1.3339,-2.46747 c 6.34383,-11.73495 21.83175,-11.73495 28.17558,0 l 1.3339,2.46747 v 116.27952 c 0,112.18123 -0.0405,116.35561 -1.14749,118.43855 -1.90347,3.58144 -5.36355,6.7096 -8.8746,8.02325 -4.06841,1.52218 -6.9791,1.51879 -10.90131,-0.0127 z"
     id="path889" />
  <path
     style="fill:#fbefe7;fill-opacity:1;stroke-width:0.616867"
     d="m 187.21928,414.85701 c -6.21923,-2.01222 -10.33779,-7.71175 -10.86305,-15.03297 -0.36685,-5.11333 -7.60198,-209.86443 -7.77422,-220.00717 -0.14234,-8.38146 0.39491,-10.26882 4.0861,-14.35452 4.677,-5.17688 12.22888,-6.45659 18.63805,-3.15832 3.37863,1.73871 6.64802,5.62116 7.61799,9.04649 0.36751,1.29783 2.42999,51.87799 4.73963,116.23444 4.5402,126.50962 4.53613,117.26337 0.0539,122.35546 -4.38737,4.98431 -10.58279,6.83058 -16.49839,4.91659 z"
     id="path891" />
  <path
     style="fill:#fbefe7;fill-opacity:1;stroke-width:0.616867"
     d=""
     id="path893" />
</svg>
